<?xml version="1.0" standalone="no"?>
<!DOCTYPE svg PUBLIC "-//W3C//DTD SVG 20010904//EN"
 "http://www.w3.org/TR/2001/REC-SVG-20010904/DTD/svg10.dtd">
<svg version="1.0" xmlns="http://www.w3.org/2000/svg"
 width="400.000000pt" height="151.000000pt" viewBox="0 0 400.000000 151.000000"
 preserveAspectRatio="xMidYMid meet">

<g transform="translate(0.000000,151.000000) scale(0.100000,-0.100000)"
fill="#000000" stroke="none">
<path d="M167 1488 c-3 -13 -40 -201 -82 -418 -42 -217 -79 -405 -82 -417 l-5
-23 211 0 c162 0 211 -3 211 -12 0 -7 -29 -149 -63 -316 l-63 -302 1768 0
c972 0 1768 2 1768 4 0 3 38 192 85 421 47 230 85 419 85 421 0 2 -110 4 -243
4 l-244 0 64 323 c34 177 63 325 63 330 0 4 -780 7 -1734 7 l-1734 0 -5 -22z
m663 -141 c-19 -33 -110 -412 -110 -460 0 -12 5 -28 12 -35 9 -9 -10 -12 -87
-12 -93 0 -97 1 -82 18 8 9 21 30 27 46 11 31 90 382 90 404 0 9 -25 12 -90
12 -49 0 -90 -3 -90 -7 0 -3 -20 -100 -45 -214 -35 -160 -43 -214 -35 -233
l10 -26 -97 0 -96 0 20 23 c11 12 26 38 32 57 25 80 92 416 86 437 l-5 23 239
0 240 0 -19 -33z m2067 -85 c-27 -29 -20 -37 33 -39 63 -3 105 -25 130 -66 24
-39 25 -75 5 -125 -32 -75 -81 -108 -189 -127 -67 -11 -71 -13 -71 -38 1 -27
0 -27 -67 -27 l-69 0 15 29 15 28 -45 7 c-105 14 -150 61 -142 147 9 92 87
156 201 167 58 5 59 5 55 33 l-5 29 75 0 c72 0 74 -1 59 -18z m-1809 -13 c71
-15 97 -46 97 -114 0 -93 -70 -155 -177 -155 l-57 0 -7 -45 c-3 -25 -4 -56 -2
-70 5 -25 5 -25 -74 -25 l-78 0 14 23 c22 33 88 326 82 365 l-5 32 79 0 c44 0
101 -5 128 -11z m477 -13 c45 -30 65 -74 65 -145 0 -84 -15 -132 -59 -182 -45
-54 -100 -79 -174 -79 -123 0 -173 57 -165 191 7 113 60 193 153 228 41 15
149 7 180 -13z m472 10 c3 -2 2 -23 -2 -46 -7 -39 -8 -40 -25 -25 -31 28 -81
29 -119 3 -59 -40 -75 -71 -79 -153 -4 -72 -3 -75 26 -105 33 -32 76 -39 126
-20 22 8 26 7 26 -8 0 -42 -25 -56 -102 -60 -136 -7 -198 48 -198 176 0 57 5
79 28 123 30 58 87 105 143 120 33 8 167 5 176 -5z m349 -6 c54 -27 74 -67 74
-153 0 -113 -42 -191 -123 -232 -60 -29 -150 -34 -201 -10 -102 49 -102 249
-1 350 64 65 171 83 251 45z m1029 -12 c-10 -44 -15 -52 -28 -39 -6 6 -25 11
-42 11 l-31 0 -33 -156 c-18 -85 -31 -164 -28 -175 5 -18 -1 -19 -75 -19 -78
0 -80 1 -64 18 12 14 86 295 86 328 0 8 -62 4 -80 -6 -15 -8 -19 -7 -16 2 3 7
7 25 10 41 l6 27 151 0 151 0 -7 -32z m-2386 -514 c4 -5 4 -23 -1 -41 l-8 -32
-35 15 c-116 48 -230 -47 -243 -202 -9 -117 38 -184 128 -184 27 0 61 5 75 10
26 10 27 9 20 -17 -3 -16 -11 -32 -16 -38 -6 -5 -50 -12 -98 -13 -107 -5 -163
15 -207 74 -28 36 -29 42 -29 138 0 85 4 108 22 142 43 82 97 127 183 155 33
11 198 6 209 -7z m791 -90 c30 -7 32 -9 26 -42 -7 -45 -8 -45 -42 -27 -40 21
-65 19 -104 -7 -58 -40 -74 -71 -78 -153 -4 -72 -3 -75 26 -105 33 -32 76 -39
126 -20 22 8 26 7 26 -8 0 -43 -24 -57 -107 -60 -67 -2 -84 1 -117 20 -54 32
-76 77 -76 158 0 173 140 280 320 244z m-575 -24 c-15 -17 -70 -219 -61 -227
1 -2 45 52 97 120 l94 122 63 3 63 3 -16 -24 c-20 -31 -87 -324 -82 -359 l4
-28 -80 0 c-76 0 -79 1 -64 18 14 15 29 70 62 215 5 25 4 24 -100 -111 l-91
-117 -62 -3 -63 -3 16 24 c20 31 87 335 80 365 -5 21 -3 22 76 22 81 0 82 0
64 -20z m980 -12 c-10 -44 -15 -52 -28 -39 -6 6 -25 11 -42 11 l-30 0 -34
-154 c-18 -85 -31 -164 -28 -175 5 -20 1 -21 -75 -21 -78 0 -81 1 -64 18 9 11
30 79 46 153 17 74 32 144 35 157 5 20 2 22 -34 22 -22 0 -43 -4 -46 -10 -15
-24 -22 -7 -13 30 l10 40 155 0 155 0 -7 -32z m314 10 c-1 -40 -12 -58 -29
-48 -8 5 -34 10 -56 10 -41 0 -42 -1 -53 -44 -16 -64 -15 -66 29 -66 41 0 45
-5 34 -46 -5 -19 -11 -21 -49 -17 l-43 5 -11 -51 c-6 -29 -11 -56 -11 -61 0
-13 106 -13 129 0 17 8 17 6 8 -35 l-10 -45 -145 0 c-137 0 -144 1 -130 18 20
22 31 59 68 225 23 104 28 143 20 157 -10 19 -7 20 120 20 128 0 130 0 129
-22z m230 9 c6 -8 19 -56 29 -108 l18 -94 50 77 c27 42 57 91 66 107 17 31 18
31 103 31 l85 0 -13 -22 c-19 -30 -70 -320 -65 -364 l4 -34 -83 0 -83 0 14 23
c12 18 66 257 66 291 0 5 -45 -64 -101 -155 -56 -90 -102 -165 -104 -167 -1
-1 -12 62 -25 140 -13 79 -26 152 -30 162 -9 25 -63 -248 -55 -274 6 -18 1
-20 -56 -20 l-62 0 20 23 c15 16 31 71 58 195 20 95 34 179 31 187 -4 12 7 15
58 15 41 0 68 -5 75 -13z m573 -12 c-11 -14 -23 -42 -26 -62 -4 -21 -9 -46
-12 -55 -5 -16 2 -18 46 -18 60 0 114 -20 129 -48 17 -32 13 -94 -9 -129 -35
-58 -82 -73 -225 -73 l-125 0 14 23 c19 30 79 333 72 363 -6 24 -6 24 75 24
l80 0 -19 -25z m365 7 c-21 -23 -79 -302 -75 -354 l4 -38 -78 0 -78 0 14 23
c19 30 79 333 72 363 -6 24 -6 24 75 24 79 0 81 -1 66 -18z"/>
<path d="M2866 1163 c-5 -17 -46 -204 -46 -210 0 -10 40 0 67 17 81 49 85 182
6 205 -15 4 -23 1 -27 -12z"/>
<path d="M2681 1144 c-39 -33 -57 -92 -41 -140 11 -33 52 -65 66 -51 3 3 15
45 25 94 11 48 22 96 25 106 8 27 -39 22 -75 -9z"/>
<path d="M1006 1212 c-10 -17 -40 -181 -34 -188 14 -13 64 14 86 46 31 47 30
102 -4 129 -29 23 -40 26 -48 13z"/>
<path d="M1406 1175 c-29 -31 -56 -124 -56 -193 0 -40 5 -57 24 -79 24 -27 26
-27 53 -13 42 22 73 95 80 184 5 60 3 80 -11 101 -21 33 -60 33 -90 0z"/>
<path d="M2242 1177 c-33 -35 -53 -94 -59 -172 -5 -66 -4 -73 20 -100 25 -29
27 -29 54 -15 42 22 73 95 80 184 5 60 3 80 -11 101 -21 31 -55 33 -84 2z"/>
<path d="M3295 408 c-11 -31 -32 -148 -27 -153 9 -9 40 -6 67 7 29 13 55 55
55 88 0 44 -82 93 -95 58z"/>
</g>
</svg>
