<?xml version="1.0" standalone="no"?>
<!DOCTYPE svg PUBLIC "-//W3C//DTD SVG 20010904//EN"
 "http://www.w3.org/TR/2001/REC-SVG-20010904/DTD/svg10.dtd">
<svg version="1.0" xmlns="http://www.w3.org/2000/svg"
 width="133.000000pt" height="50.000000pt" viewBox="0 0 133.000000 50.000000"
 preserveAspectRatio="xMidYMid meet">

<g transform="translate(0.000000,50.000000) scale(0.100000,-0.100000)"
fill="#000000" stroke="none">
<path d="M55 488 c-2 -7 -14 -62 -25 -123 -12 -60 -24 -120 -27 -132 -5 -22
-2 -23 60 -23 36 0 68 -3 71 -8 2 -4 -4 -48 -14 -97 -11 -50 -19 -93 -20 -98
0 -4 264 -6 587 -5 l587 3 21 105 c12 58 24 120 28 138 l7 32 -80 0 c-44 0
-80 4 -80 9 0 5 9 53 20 106 11 53 20 99 20 101 0 2 -259 4 -575 4 -452 0
-577 -3 -580 -12z m222 -40 c-3 -7 -14 -48 -24 -90 -16 -69 -20 -78 -40 -78
-13 0 -23 1 -23 3 0 1 7 27 15 57 23 85 21 102 -12 98 -26 -3 -29 -8 -43 -80
-14 -76 -15 -78 -44 -78 -21 0 -26 3 -18 13 5 6 15 41 22 77 6 36 13 71 16 78
2 8 27 12 80 12 56 0 74 -3 71 -12z m87 -38 c18 -6 26 -17 26 -34 0 -28 -16
-43 -50 -48 -17 -2 -26 -10 -28 -25 -2 -15 -10 -23 -24 -23 -17 0 -19 4 -14
26 4 15 9 40 12 58 3 17 7 37 10 44 4 14 33 16 68 2z m436 -10 c26 -26 25 -60
-1 -94 -16 -20 -29 -26 -60 -26 -33 0 -41 4 -49 25 -19 49 24 112 78 114 6 1
21 -8 32 -19z m168 11 c9 -5 25 -12 35 -15 40 -13 4 -96 -42 -96 -11 0 -23 -4
-26 -10 -7 -12 -45 -14 -45 -2 0 4 -10 12 -22 17 -44 19 -25 95 23 95 10 0 21
5 24 10 8 13 30 13 53 1z m166 -5 c-3 -8 -11 -13 -18 -10 -9 3 -17 -14 -26
-55 -10 -50 -16 -61 -33 -61 -16 0 -18 5 -13 28 19 83 19 92 2 92 -10 0 -14 5
-11 10 3 6 28 10 55 10 39 0 48 -3 44 -14z m-600 -12 c11 -28 6 -69 -10 -92
-18 -26 -84 -31 -104 -7 -17 20 -6 86 17 102 25 19 89 17 97 -3z m146 5 c0 -6
-8 -8 -19 -4 -28 9 -63 -29 -59 -63 2 -21 9 -28 31 -30 42 -5 32 -22 -13 -22
-60 0 -80 52 -39 104 16 20 29 26 60 26 21 0 39 -5 39 -11z m-340 -172 c0 -9
-9 -12 -29 -9 -35 5 -61 -26 -61 -73 0 -37 16 -55 48 -55 13 0 20 -4 17 -10
-3 -5 -22 -10 -41 -10 -38 0 -74 29 -74 59 0 37 23 82 49 96 34 18 91 20 91 2z
m270 -33 c0 -8 -5 -12 -10 -9 -6 4 -22 -1 -36 -10 -20 -13 -25 -23 -22 -48 2
-27 8 -33 31 -35 37 -4 24 -22 -17 -22 -41 0 -56 15 -56 57 0 44 38 83 80 83
20 0 30 -5 30 -16z m-200 -3 c0 -5 -4 -22 -10 -38 -9 -27 -8 -26 24 10 38 43
72 51 62 15 -3 -13 -9 -42 -12 -66 -6 -36 -10 -42 -31 -42 -21 0 -23 3 -17 23
4 12 9 29 11 37 3 8 -10 -2 -29 -23 -35 -39 -74 -51 -64 -19 3 9 8 31 11 47
13 58 17 65 36 65 10 0 19 -4 19 -9z m330 -1 c0 -6 -8 -10 -17 -8 -13 2 -19
-9 -28 -52 -8 -45 -14 -56 -33 -58 -12 -2 -22 -2 -22 0 0 2 6 26 14 55 15 56
13 65 -12 56 -10 -4 -13 -2 -8 5 9 15 106 16 106 2z m100 -1 c0 -6 -7 -8 -15
-5 -10 3 -18 -1 -22 -11 -4 -9 -1 -19 5 -21 17 -5 15 -22 -3 -22 -8 0 -15 -2
-15 -4 0 -2 -3 -11 -6 -20 -5 -12 0 -16 20 -16 14 0 26 -4 26 -10 0 -5 -22
-10 -48 -10 l-48 0 16 65 15 65 38 0 c20 0 37 -5 37 -11z m91 -24 l5 -30 20
32 c14 25 26 33 48 33 24 0 27 -3 23 -22 -4 -13 -9 -42 -13 -65 -5 -36 -10
-43 -30 -43 -21 0 -22 3 -13 32 17 59 9 64 -23 14 l-32 -49 -11 49 -12 49 -7
-47 c-6 -32 -13 -48 -23 -48 -9 0 -13 6 -10 14 3 8 9 32 12 53 10 59 13 65 37
61 16 -2 25 -12 29 -33z m173 11 c-5 -21 -2 -25 23 -28 20 -2 29 -9 31 -24 5
-33 -24 -54 -74 -54 -39 0 -45 3 -40 18 3 9 8 31 11 47 13 58 17 65 36 65 16
0 18 -5 13 -24z m121 7 c-3 -10 -9 -39 -12 -65 -5 -43 -8 -48 -30 -48 -18 0
-23 4 -20 14 3 8 9 32 12 53 10 58 13 63 36 63 16 0 20 -4 14 -17z"/>
<path d="M328 370 c-3 -16 -1 -30 3 -30 14 0 31 30 25 45 -9 25 -23 17 -28
-15z"/>
<path d="M731 353 c-8 -29 -8 -41 3 -51 17 -17 32 0 41 51 6 33 5 37 -13 37
-16 0 -24 -10 -31 -37z"/>
<path d="M892 378 c-14 -14 -16 -54 -3 -62 5 -3 12 5 15 18 3 13 9 31 12 40 7
19 -7 21 -24 4z"/>
<path d="M946 359 c-9 -49 -8 -53 14 -34 22 19 24 56 4 62 -6 2 -14 -10 -18
-28z"/>
<path d="M466 378 c-18 -26 -21 -74 -5 -84 17 -10 30 10 36 53 6 48 -9 63 -31
31z"/>
<path d="M1090 110 c0 -34 3 -36 25 -14 12 12 13 19 4 30 -18 22 -29 16 -29
-16z"/>
</g>
</svg>
